<?xml version="1.0" standalone="no"?>
<!DOCTYPE svg PUBLIC "-//W3C//DTD SVG 20010904//EN"
 "http://www.w3.org/TR/2001/REC-SVG-20010904/DTD/svg10.dtd">
<svg version="1.0" xmlns="http://www.w3.org/2000/svg"
 width="220.000000pt" height="220.000000pt" viewBox="0 0 225.000000 200.000000"
 preserveAspectRatio="xMidYMid meet">

<g transform="translate(0.000000,225.000000) scale(0.100000,-0.100000)"
fill="#00A67D" stroke="none">
<path d="M0 1125 l0 -1125 498 0 c417 0 509 3 572 16 83 18 273 15 323 -5 16
-6 83 -11 149 -11 l120 0 36 31 c96 85 233 105 347 50 33 -15 71 -40 84 -55
20 -21 33 -26 73 -26 l48 0 0 1125 0 1125 -1125 0 -1125 0 0 -1125z m1011 812
c37 -27 77 -13 106 39 13 22 23 32 23 22 0 -33 23 -67 53 -79 25 -11 34 -10
58 4 35 19 37 12 7 -21 -13 -14 -18 -22 -12 -19 11 6 -26 -96 -38 -109 -3 -3
-9 11 -12 31 -4 20 -16 41 -30 50 -20 13 -130 26 -226 25 -26 0 -70 -41 -70
-66 0 -8 -4 -14 -9 -14 -5 0 -17 33 -26 73 -10 39 -22 81 -28 92 -9 18 -7 18
15 -2 45 -42 109 -22 132 42 7 18 9 16 19 -14 7 -19 24 -43 38 -54z m69 -162
c30 -8 100 -26 155 -39 113 -27 135 -35 135 -46 0 -9 60 -38 133 -64 45 -17
47 -19 47 -57 0 -21 -4 -39 -9 -39 -11 0 -32 25 -26 31 14 14 -76 7 -135 -11
-70 -21 -120 -20 -164 2 -10 6 -16 6 -13 1 3 -5 -3 -17 -15 -27 -17 -15 -22
-16 -29 -5 -31 48 -21 102 24 129 37 23 47 25 47 9 0 -26 36 -38 110 -38 62 0
72 2 56 12 -11 7 -28 20 -38 30 -14 14 -33 18 -76 16 -31 -1 -70 4 -85 10 -16
6 -58 11 -95 11 l-67 0 -65 -61 c-36 -33 -79 -66 -97 -74 -18 -7 -39 -28 -49
-47 -15 -29 -15 -31 -1 -20 14 12 15 11 10 -10 -3 -12 -9 -48 -13 -78 l-7 -55
-18 43 c-14 32 -23 42 -42 42 -25 0 -32 -24 -9 -33 7 -3 16 -24 20 -47 13 -82
129 -171 262 -201 91 -20 96 -5 16 51 -38 27 -80 64 -93 81 -13 18 -25 27 -27
21 -6 -19 -31 12 -47 59 -22 61 -20 134 5 159 11 11 20 24 20 29 0 11 29 23
40 16 4 -2 1 -25 -7 -50 -33 -99 7 -182 139 -286 98 -77 128 -122 128 -195 0
-51 -15 -110 -32 -129 -6 -6 -7 -4 -3 7 4 9 2 32 -3 52 -7 25 -7 36 1 39 16 6
-23 82 -41 81 -6 -1 -28 -2 -47 -2 -42 -2 -45 -14 -9 -31 26 -11 26 -14 21
-77 -4 -49 -11 -74 -33 -106 l-29 -41 -6 64 c-3 36 -8 69 -11 74 -3 6 0 16 8
23 10 10 14 10 14 1 0 -7 2 -10 4 -8 3 3 0 23 -5 45 -10 38 -17 44 -86 80 -96
50 -157 103 -195 171 -33 59 -44 67 -33 26 5 -23 4 -26 -6 -15 -7 6 -15 41
-17 76 -4 56 -1 71 24 115 31 59 62 91 50 54 -12 -37 5 -48 21 -14 21 43 78
96 148 137 l60 35 -45 -4 c-45 -4 -113 -31 -160 -64 -18 -12 -16 -7 10 20 38
41 121 87 156 87 13 0 26 5 29 10 8 13 -30 13 -74 0 -26 -7 -32 -7 -23 2 11
11 93 36 122 37 9 1 40 -6 70 -14z m-7 -157 c-14 -39 -7 -101 17 -148 12 -25
66 -87 120 -141 107 -103 128 -144 116 -221 -8 -50 -27 -89 -39 -81 -6 3 -7 1
-3 -5 4 -6 -8 -31 -25 -54 -18 -24 -29 -34 -25 -24 31 88 29 175 -5 234 -24
42 -24 50 0 28 12 -11 21 -14 26 -7 3 6 1 11 -6 11 -7 0 -9 3 -5 7 7 7 -92
113 -106 113 -4 0 -8 -5 -8 -11 0 -5 5 -7 10 -4 6 3 10 4 10 1 0 -3 -4 -8 -10
-11 -12 -8 -70 81 -71 109 0 21 -1 21 -8 1 -5 -11 -7 -28 -5 -37 6 -36 -12
-16 -40 43 -33 71 -32 125 3 183 26 42 68 52 54 14z m397 -145 c-11 -17 -11
-17 -6 0 3 10 6 24 7 30 0 9 2 9 5 0 3 -7 0 -20 -6 -30z m-117 1 c12 -4 17
-17 17 -41 0 -38 12 -67 43 -100 24 -27 31 -28 51 -7 14 13 16 14 16 0 0 -8
-5 -18 -11 -22 -8 -4 -1 -13 17 -22 l29 -15 -34 -14 c-18 -8 -38 -12 -44 -10
-7 2 -19 -5 -28 -16 -19 -24 -35 -17 -41 18 -3 13 -2 23 1 20 4 -2 12 0 19 4
8 5 -2 25 -33 66 -25 33 -45 63 -45 68 0 7 -25 3 -74 -10 -18 -5 -18 -4 0 27
20 35 73 73 89 65 6 -3 18 -8 28 -11z m-738 -733 c9 -15 -11 -88 -28 -106 -18
-18 -117 -21 -134 -4 -13 13 2 100 20 111 17 11 135 10 142 -1z m62 -20 c-3
-16 -9 -40 -13 -55 -6 -26 -6 -26 55 -26 42 0 61 -4 61 -12 0 -9 -23 -13 -80
-13 -51 0 -79 4 -76 10 2 6 9 36 16 68 8 40 16 57 27 57 12 0 14 -7 10 -29z
m180 7 c-4 -13 -9 -42 -13 -65 -4 -29 -12 -43 -25 -46 -22 -6 -22 -4 -10 43 5
19 12 47 15 63 4 15 13 27 22 27 12 0 15 -6 11 -22z m193 12 c0 -6 -30 -10
-70 -10 -66 0 -70 -1 -70 -22 0 -13 -3 -33 -6 -45 -6 -22 -3 -23 45 -23 48 0
51 2 51 25 0 19 5 25 21 25 15 0 19 -4 15 -16 -3 -9 -6 -25 -6 -35 0 -18 -6
-20 -81 -18 l-81 2 7 51 c3 28 11 56 17 63 13 16 158 18 158 3z m156 -62 c21
-64 22 -67 3 -65 -11 1 -19 9 -19 19 0 27 -89 26 -113 -2 -9 -11 -21 -20 -27
-20 -6 0 13 32 42 70 68 90 83 90 114 -2z m224 44 c0 -20 -7 -33 -25 -42 -22
-12 -23 -15 -10 -34 20 -27 19 -32 -5 -32 -18 0 -26 18 -21 49 0 4 -19 7 -43
7 -29 0 -44 -4 -43 -12 1 -32 -4 -45 -18 -45 -8 0 -15 5 -15 11 1 13 19 95 25
114 3 8 28 12 80 12 l75 0 0 -28z m180 21 c0 -5 -24 -8 -54 -8 -30 0 -57 -2
-60 -5 -3 -3 -8 -25 -12 -48 l-7 -42 57 0 c34 0 56 -4 56 -11 0 -11 -133 -10
-144 2 -7 6 14 91 27 107 10 13 137 18 137 5z m48 -13 c-16 -25 -12 -28 37
-30 62 -3 65 -2 65 25 0 18 5 25 19 25 18 0 19 -2 4 -31 -8 -16 -15 -45 -15
-64 0 -20 -6 -36 -14 -39 -16 -6 -20 29 -4 39 25 15 5 25 -51 25 -55 0 -60 -2
-54 -19 3 -11 -1 -26 -10 -35 -24 -23 -27 -20 -20 17 16 80 27 107 40 107 13
0 13 -3 3 20z"/>
<path d="M1205 1860 c-16 -7 -17 -9 -3 -9 9 -1 20 4 23 9 7 11 7 11 -20 0z"/>
<path d="M1040 1462 c0 -5 7 -13 16 -16 10 -4 14 -1 12 6 -5 15 -28 23 -28 10z"/>
<path d="M492 731 c-5 -3 -13 -25 -17 -48 l-7 -43 50 0 c49 0 51 1 57 33 4 17
12 38 17 45 7 8 6 12 -3 13 -8 0 -30 2 -51 4 -20 1 -41 0 -46 -4z"/>
<path d="M1150 720 c0 -5 -9 -18 -20 -28 -21 -19 -21 -20 -2 -24 28 -8 40 3
39 35 -2 24 -17 41 -17 17z"/>
<path d="M1343 732 c-35 -3 -43 -7 -43 -23 0 -16 7 -19 45 -19 33 0 47 5 54
19 13 23 3 27 -56 23z"/>
</g>
</svg>
